<svg id="visual" viewBox="0 0 900 600" width="900" height="600" xmlns="http://www.w3.org/2000/svg" xmlns:xlink="http://www.w3.org/1999/xlink" version="1.1"><g stroke-width="1" stroke-linejoin="bevel"><path d="M422 288L493 314L460 222Z" fill="#15384f" stroke="#15384f"></path><path d="M460 222L370 204L422 288Z" fill="#297ea6" stroke="#297ea6"></path><path d="M493 314L580 215L460 222Z" fill="#277297" stroke="#277297"></path><path d="M460 222L480 120L370 204Z" fill="#112e42" stroke="#112e42"></path><path d="M580 215L480 120L460 222Z" fill="#277297" stroke="#277297"></path><path d="M264 337L394 411L422 288Z" fill="#081a28" stroke="#081a28"></path><path d="M422 288L394 411L493 314Z" fill="#081a28" stroke="#081a28"></path><path d="M394 411L524 420L493 314Z" fill="#112e42" stroke="#112e42"></path><path d="M493 314L633 331L580 215Z" fill="#112e42" stroke="#112e42"></path><path d="M583 406L633 331L493 314Z" fill="#112e42" stroke="#112e42"></path><path d="M524 420L583 406L493 314Z" fill="#277297" stroke="#277297"></path><path d="M480 120L423 92L370 204Z" fill="#277297" stroke="#277297"></path><path d="M265 102L289 213L370 204Z" fill="#246688" stroke="#246688"></path><path d="M370 204L289 213L422 288Z" fill="#205a7a" stroke="#205a7a"></path><path d="M289 213L264 337L422 288Z" fill="#0c2435" stroke="#0c2435"></path><path d="M264 337L306 418L394 411Z" fill="#112e42" stroke="#112e42"></path><path d="M423 510L525 489L524 420Z" fill="#246688" stroke="#246688"></path><path d="M580 215L562 71L480 120Z" fill="#1d4e6b" stroke="#1d4e6b"></path><path d="M480 120L469 0L423 92Z" fill="#081a28" stroke="#081a28"></path><path d="M685 88L562 71L580 215Z" fill="#112e42" stroke="#112e42"></path><path d="M423 510L524 420L394 411Z" fill="#19435d" stroke="#19435d"></path><path d="M524 420L563 478L583 406Z" fill="#246688" stroke="#246688"></path><path d="M525 489L563 478L524 420Z" fill="#15384f" stroke="#15384f"></path><path d="M583 406L663 419L633 331Z" fill="#0c2435" stroke="#0c2435"></path><path d="M633 331L687 202L580 215Z" fill="#297ea6" stroke="#297ea6"></path><path d="M306 418L423 510L394 411Z" fill="#246688" stroke="#246688"></path><path d="M563 478L663 419L583 406Z" fill="#297ea6" stroke="#297ea6"></path><path d="M633 331L729 284L687 202Z" fill="#297ea6" stroke="#297ea6"></path><path d="M773 385L729 284L633 331Z" fill="#00101c" stroke="#00101c"></path><path d="M322 0L265 102L423 92Z" fill="#1d4e6b" stroke="#1d4e6b"></path><path d="M423 92L265 102L370 204Z" fill="#1d4e6b" stroke="#1d4e6b"></path><path d="M289 213L184 269L264 337Z" fill="#246688" stroke="#246688"></path><path d="M562 71L469 0L480 120Z" fill="#00101c" stroke="#00101c"></path><path d="M764 89L685 88L687 202Z" fill="#246688" stroke="#246688"></path><path d="M687 202L685 88L580 215Z" fill="#112e42" stroke="#112e42"></path><path d="M562 71L612 0L469 0Z" fill="#0c2435" stroke="#0c2435"></path><path d="M469 0L384 0L423 92Z" fill="#081a28" stroke="#081a28"></path><path d="M160 191L184 269L289 213Z" fill="#19435d" stroke="#19435d"></path><path d="M209 472L310 539L306 418Z" fill="#15384f" stroke="#15384f"></path><path d="M685 88L612 0L562 71Z" fill="#19435d" stroke="#19435d"></path><path d="M384 0L322 0L423 92Z" fill="#0c2435" stroke="#0c2435"></path><path d="M209 472L306 418L175 428Z" fill="#15384f" stroke="#15384f"></path><path d="M306 418L310 539L423 510Z" fill="#1d4e6b" stroke="#1d4e6b"></path><path d="M423 510L521 600L525 489Z" fill="#205a7a" stroke="#205a7a"></path><path d="M839 290L776 209L729 284Z" fill="#0c2435" stroke="#0c2435"></path><path d="M729 284L776 209L687 202Z" fill="#0c2435" stroke="#0c2435"></path><path d="M563 478L719 461L663 419Z" fill="#19435d" stroke="#19435d"></path><path d="M663 419L773 385L633 331Z" fill="#19435d" stroke="#19435d"></path><path d="M693 600L719 461L563 478Z" fill="#0c2435" stroke="#0c2435"></path><path d="M579 600L563 478L525 489Z" fill="#19435d" stroke="#19435d"></path><path d="M265 102L160 191L289 213Z" fill="#15384f" stroke="#15384f"></path><path d="M168 84L160 191L265 102Z" fill="#00101c" stroke="#00101c"></path><path d="M719 461L773 385L663 419Z" fill="#15384f" stroke="#15384f"></path><path d="M175 428L264 337L184 269Z" fill="#205a7a" stroke="#205a7a"></path><path d="M175 428L306 418L264 337Z" fill="#15384f" stroke="#15384f"></path><path d="M117 403L175 428L184 269Z" fill="#277297" stroke="#277297"></path><path d="M388 600L521 600L423 510Z" fill="#277297" stroke="#277297"></path><path d="M335 600L388 600L310 539Z" fill="#0c2435" stroke="#0c2435"></path><path d="M310 539L388 600L423 510Z" fill="#0c2435" stroke="#0c2435"></path><path d="M764 89L674 0L685 88Z" fill="#277297" stroke="#277297"></path><path d="M685 88L674 0L612 0Z" fill="#205a7a" stroke="#205a7a"></path><path d="M776 209L764 89L687 202Z" fill="#081a28" stroke="#081a28"></path><path d="M521 600L579 600L525 489Z" fill="#1d4e6b" stroke="#1d4e6b"></path><path d="M183 0L168 84L265 102Z" fill="#297ea6" stroke="#297ea6"></path><path d="M194 600L335 600L310 539Z" fill="#19435d" stroke="#19435d"></path><path d="M168 84L118 170L160 191Z" fill="#277297" stroke="#277297"></path><path d="M160 191L93 292L184 269Z" fill="#19435d" stroke="#19435d"></path><path d="M773 385L839 290L729 284Z" fill="#15384f" stroke="#15384f"></path><path d="M900 113L810 0L764 89Z" fill="#1d4e6b" stroke="#1d4e6b"></path><path d="M175 428L69 503L209 472Z" fill="#205a7a" stroke="#205a7a"></path><path d="M209 472L194 600L310 539Z" fill="#277297" stroke="#277297"></path><path d="M93 292L117 403L184 269Z" fill="#1d4e6b" stroke="#1d4e6b"></path><path d="M118 170L93 292L160 191Z" fill="#297ea6" stroke="#297ea6"></path><path d="M322 0L183 0L265 102Z" fill="#081a28" stroke="#081a28"></path><path d="M168 84L77 109L118 170Z" fill="#205a7a" stroke="#205a7a"></path><path d="M719 461L799 501L773 385Z" fill="#112e42" stroke="#112e42"></path><path d="M900 376L900 338L839 290Z" fill="#297ea6" stroke="#297ea6"></path><path d="M579 600L693 600L563 478Z" fill="#277297" stroke="#277297"></path><path d="M693 600L799 501L719 461Z" fill="#00101c" stroke="#00101c"></path><path d="M67 0L77 109L168 84Z" fill="#297ea6" stroke="#297ea6"></path><path d="M118 170L0 225L93 292Z" fill="#277297" stroke="#277297"></path><path d="M123 600L194 600L209 472Z" fill="#081a28" stroke="#081a28"></path><path d="M900 161L764 89L776 209Z" fill="#00101c" stroke="#00101c"></path><path d="M764 89L810 0L674 0Z" fill="#0c2435" stroke="#0c2435"></path><path d="M900 376L839 290L773 385Z" fill="#205a7a" stroke="#205a7a"></path><path d="M839 290L900 161L776 209Z" fill="#19435d" stroke="#19435d"></path><path d="M799 501L900 376L773 385Z" fill="#19435d" stroke="#19435d"></path><path d="M900 338L900 161L839 290Z" fill="#277297" stroke="#277297"></path><path d="M900 161L900 113L764 89Z" fill="#0c2435" stroke="#0c2435"></path><path d="M0 484L69 503L117 403Z" fill="#297ea6" stroke="#297ea6"></path><path d="M117 403L69 503L175 428Z" fill="#205a7a" stroke="#205a7a"></path><path d="M0 379L117 403L93 292Z" fill="#246688" stroke="#246688"></path><path d="M77 109L0 225L118 170Z" fill="#246688" stroke="#246688"></path><path d="M0 225L0 318L93 292Z" fill="#19435d" stroke="#19435d"></path><path d="M69 503L123 600L209 472Z" fill="#081a28" stroke="#081a28"></path><path d="M0 318L0 379L93 292Z" fill="#246688" stroke="#246688"></path><path d="M77 109L0 60L0 225Z" fill="#0c2435" stroke="#0c2435"></path><path d="M183 0L67 0L168 84Z" fill="#246688" stroke="#246688"></path><path d="M693 600L833 600L799 501Z" fill="#19435d" stroke="#19435d"></path><path d="M799 501L900 513L900 376Z" fill="#297ea6" stroke="#297ea6"></path><path d="M833 600L900 513L799 501Z" fill="#112e42" stroke="#112e42"></path><path d="M900 113L900 0L810 0Z" fill="#081a28" stroke="#081a28"></path><path d="M67 0L0 60L77 109Z" fill="#205a7a" stroke="#205a7a"></path><path d="M0 379L0 484L117 403Z" fill="#0c2435" stroke="#0c2435"></path><path d="M69 503L0 600L123 600Z" fill="#1d4e6b" stroke="#1d4e6b"></path><path d="M67 0L0 0L0 60Z" fill="#297ea6" stroke="#297ea6"></path><path d="M833 600L900 600L900 513Z" fill="#205a7a" stroke="#205a7a"></path><path d="M0 484L0 600L69 503Z" fill="#081a28" stroke="#081a28"></path></g></svg>