<?xml version="1.0" standalone="no"?>
<svg xmlns="http://www.w3.org/2000/svg" viewBox="0 0 67.936 78.446" width="67.936" height="78.446"><polygon fill="none" stroke="#ffffff" stroke-width="3" points="66.436,20.3615 66.436,58.0845 33.968,76.946 1.5,58.0845 1.5,20.3615 33.968,1.5"></polygon><path fill="#ffffff" fill-rule="nonzero" d="M11.98 15.89L0 15.89L0 15.65L0.55 15.43Q0.96 15.26 1.12 14.99Q1.27 14.71 1.27 14.23L1.27 14.23L1.27 1.70Q1.27 1.22 1.14 0.95Q1.01 0.67 0.55 0.50L0.55 0.50L0 0.29L0 0.05L11.50 0.05L11.64 3.74L11.40 3.74L10.37 1.49Q10.15 1.06 9.91 0.79Q9.67 0.53 9.19 0.53L9.19 0.53L4.87 0.53L4.87 7.46L7.44 7.46Q7.92 7.46 8.17 7.21Q8.42 6.96 8.62 6.53L8.62 6.53L9.10 5.57L9.34 5.57L9.34 9.89L9.10 9.89L8.62 8.88Q8.40 8.45 8.16 8.20Q7.92 7.94 7.44 7.94L7.44 7.94L4.87 7.94L4.87 15.41L9.72 15.41Q10.20 15.41 10.46 15.16Q10.73 14.90 10.90 14.45L10.90 14.45L11.88 12.19L12.12 12.19L11.98 15.89ZM16.30 15.89L12.98 15.89L12.98 15.65L13.58 15.43Q14.06 15.24 14.33 14.96Q14.59 14.69 14.76 14.18L14.76 14.18L19.70 0L21.74 0L26.62 14.28Q26.81 14.81 27.05 15.08Q27.29 15.36 27.79 15.55L27.79 15.55L28.08 15.65L28.08 15.89L21.98 15.89L21.98 15.65L22.34 15.53Q22.85 15.34 22.96 14.99Q23.06 14.64 22.92 14.16L22.92 14.16L21.79 10.70L16.46 10.70L15.31 14.09Q15.14 14.62 15.20 14.93Q15.26 15.24 15.77 15.43L15.77 15.43L16.30 15.65L16.30 15.89ZM19.22 2.76L16.63 10.22L21.65 10.22L19.22 2.76ZM39.70 15.89L32.14 15.89L32.14 15.65L33.12 15.41Q34.10 15.19 34.10 14.21L34.10 14.21L34.10 0.53L32.06 0.53Q31.18 0.53 30.79 1.00Q30.41 1.46 29.98 2.28L29.98 2.28L29.11 3.96L28.87 3.96L28.99 0.05L42.84 0.05L42.94 3.96L42.70 3.96L41.83 2.28Q41.42 1.46 41.04 1.00Q40.66 0.53 39.77 0.53L39.77 0.53L37.73 0.53L37.73 14.21Q37.73 15.19 38.71 15.41L38.71 15.41L39.70 15.65L39.70 15.89Z" transform="translate(12.501, 31.279)"></path></svg>